# xmcd CD database file
# Copyright (C) 1993-1998 Ti Kan
# 
# Track frame offsets:
#     150
#     17662
#     40495
#     55877
#     76105
#     91842
#     105260
#     125482
#     145707
#     164162
# 
# Disc length: 2471 seconds
# 
# Revision: 1
# Processed by: cddbd v1.4b41PL1 Copyright (c) Steve Scherf et al.
# Submitted via: DiscPlay 4.0.4
# 
DISCID=7809a50a
DTITLE=Luther "Houserocker" Johnson - Houserockin' Daddy
DYEAR=1900
DGENRE=
TTITLE0=I'm Mr. Luck
TTITLE1=Bad Luck Blues
TTITLE2=You Could Have Fooled Me
TTITLE3=A Fool's Advice
TTITLE4=She Wants To Sell My Monkey
TTITLE5=Rockin' Daddy
TTITLE6=You Know I Love You, Baby
TTITLE7=Something You Got
TTITLE8=Don't Say That No More
TTITLE9=Things I Used To Do
EXTD=
EXTT0=
EXTT1=
EXTT2=
EXTT3=
EXTT4=
EXTT5=
EXTT6=
EXTT7=
EXTT8=
EXTT9=
PLAYORDER=
